<?xml version="1.0" encoding="UTF-8"?>
<!DOCTYPE svg PUBLIC "-//W3C//DTD SVG 1.1//EN" "http://www.w3.org/Graphics/SVG/1.1/DTD/svg11.dtd">
<svg version="1.1" xmlns="http://www.w3.org/2000/svg" xmlns:xlink="http://www.w3.org/1999/xlink" x="0" y="0" width="1200" height="600" viewBox="0, 0, 1200, 600">
  <g id="Background">
    <rect x="0" y="0" width="1200" height="600" fill="#000000" fill-opacity="0"/>
  </g>
  <g id="Layer_1">
    <path d="M79.644,395 L129.644,395 L129.644,445 L79.644,445 z" fill="#65A1CF"/>
    <path d="M129.644,395 L179.644,395 L179.644,445 L129.644,445 z" fill="#EBEDED"/>
    <path d="M179.644,395 L229.644,395 L229.644,445 L179.644,445 z" fill="#65A1CF"/>
    <path d="M229.644,395 L279.644,395 L279.644,445 L229.644,445 z" fill="#EBEDED"/>
    <path d="M279.644,395 L329.644,395 L329.644,445 L279.644,445 z" fill="#65A1CF"/>
    <path d="M329.644,395 L379.644,395 L379.644,445 L329.644,445 z" fill="#EBEDED"/>
    <path d="M379.644,395 L429.644,395 L429.644,445 L379.644,445 z" fill="#65A1CF"/>
    <path d="M429.644,395 L479.644,395 L479.644,445 L429.644,445 z" fill="#EBEDED"/>
    <path d="M79.644,295 L129.644,295 L129.644,345 L79.644,345 z" fill="#65A1CF"/>
    <path d="M129.644,295 L179.644,295 L179.644,345 L129.644,345 z" fill="#EBEDED"/>
    <path d="M179.644,295 L229.644,295 L229.644,345 L179.644,345 z" fill="#65A1CF"/>
    <path d="M229.644,295 L279.644,295 L279.644,345 L229.644,345 z" fill="#EBEDED"/>
    <path d="M279.644,295 L329.644,295 L329.644,345 L279.644,345 z" fill="#65A1CF"/>
    <path d="M329.644,295 L379.644,295 L379.644,345 L329.644,345 z" fill="#EBEDED"/>
    <path d="M379.644,295 L429.644,295 L429.644,345 L379.644,345 z" fill="#65A1CF"/>
    <path d="M429.644,295 L479.644,295 L479.644,345 L429.644,345 z" fill="#EBEDED"/>
    <path d="M129.644,345 L179.644,345 L179.644,395 L129.644,395 z" fill="#65A1CF"/>
    <path d="M179.644,345 L229.644,345 L229.644,395 L179.644,395 z" fill="#EBEDED"/>
    <path d="M229.644,345 L279.644,345 L279.644,395 L229.644,395 z" fill="#65A1CF"/>
    <path d="M279.644,345 L329.644,345 L329.644,395 L279.644,395 z" fill="#EBEDED"/>
    <path d="M329.644,345 L379.644,345 L379.644,395 L329.644,395 z" fill="#65A1CF"/>
    <path d="M379.644,345 L429.644,345 L429.644,395 L379.644,395 z" fill="#EBEDED"/>
    <path d="M429.644,345 L479.644,345 L479.644,395 L429.644,395 z" fill="#65A1CF"/>
    <path d="M79.644,345 L129.644,345 L129.644,395 L79.644,395 z" fill="#EBEDED"/>
    <path d="M129.644,245 L179.644,245 L179.644,295 L129.644,295 z" fill="#65A1CF"/>
    <path d="M179.644,245 L229.644,245 L229.644,295 L179.644,295 z" fill="#EBEDED"/>
    <path d="M229.644,245 L279.644,245 L279.644,295 L229.644,295 z" fill="#65A1CF"/>
    <path d="M279.644,245 L329.644,245 L329.644,295 L279.644,295 z" fill="#EBEDED"/>
    <path d="M329.644,245 L379.644,245 L379.644,295 L329.644,295 z" fill="#65A1CF"/>
    <path d="M379.644,245 L429.644,245 L429.644,295 L379.644,295 z" fill="#EBEDED"/>
    <path d="M429.644,245 L479.644,245 L479.644,295 L429.644,295 z" fill="#65A1CF"/>
    <path d="M79.644,245 L129.644,245 L129.644,295 L79.644,295 z" fill="#EBEDED"/>
    <path d="M79.644,195 L129.644,195 L129.644,245 L79.644,245 z" fill="#65A1CF"/>
    <path d="M129.644,195 L179.644,195 L179.644,245 L129.644,245 z" fill="#EBEDED"/>
    <path d="M179.644,195 L229.644,195 L229.644,245 L179.644,245 z" fill="#65A1CF"/>
    <path d="M229.644,195 L279.644,195 L279.644,245 L229.644,245 z" fill="#EBEDED"/>
    <path d="M279.644,195 L329.644,195 L329.644,245 L279.644,245 z" fill="#65A1CF"/>
    <path d="M329.644,195 L379.644,195 L379.644,245 L329.644,245 z" fill="#EBEDED"/>
    <path d="M379.644,195 L429.644,195 L429.644,245 L379.644,245 z" fill="#65A1CF"/>
    <path d="M429.644,195 L479.644,195 L479.644,245 L429.644,245 z" fill="#EBEDED"/>
    <path d="M79.644,95 L129.644,95 L129.644,145 L79.644,145 z" fill="#65A1CF"/>
    <path d="M129.644,95 L179.644,95 L179.644,145 L129.644,145 z" fill="#EBEDED"/>
    <path d="M179.644,95 L229.644,95 L229.644,145 L179.644,145 z" fill="#65A1CF"/>
    <path d="M229.644,95 L279.644,95 L279.644,145 L229.644,145 z" fill="#EBEDED"/>
    <path d="M279.644,95 L329.644,95 L329.644,145 L279.644,145 z" fill="#65A1CF"/>
    <path d="M329.644,95 L379.644,95 L379.644,145 L329.644,145 z" fill="#EBEDED"/>
    <path d="M379.644,95 L429.644,95 L429.644,145 L379.644,145 z" fill="#65A1CF"/>
    <path d="M429.644,95 L479.644,95 L479.644,145 L429.644,145 z" fill="#EBEDED"/>
    <path d="M129.644,145 L179.644,145 L179.644,195 L129.644,195 z" fill="#65A1CF"/>
    <path d="M179.644,145 L229.644,145 L229.644,195 L179.644,195 z" fill="#EBEDED"/>
    <path d="M229.644,145 L279.644,145 L279.644,195 L229.644,195 z" fill="#65A1CF"/>
    <path d="M279.644,145 L329.644,145 L329.644,195 L279.644,195 z" fill="#EBEDED"/>
    <path d="M329.644,145 L379.644,145 L379.644,195 L329.644,195 z" fill="#65A1CF"/>
    <path d="M379.644,145 L429.644,145 L429.644,195 L379.644,195 z" fill="#EBEDED"/>
    <path d="M429.644,145 L479.644,145 L479.644,195 L429.644,195 z" fill="#65A1CF"/>
    <path d="M79.644,145 L129.644,145 L129.644,195 L79.644,195 z" fill="#EBEDED"/>
    <path d="M129.644,45 L179.644,45 L179.644,95 L129.644,95 z" fill="#65A1CF"/>
    <path d="M179.644,45 L229.644,45 L229.644,95 L179.644,95 z" fill="#EBEDED"/>
    <path d="M229.644,45 L279.644,45 L279.644,95 L229.644,95 z" fill="#65A1CF"/>
    <path d="M279.644,45 L329.644,45 L329.644,95 L279.644,95 z" fill="#EBEDED"/>
    <path d="M329.644,45 L379.644,45 L379.644,95 L329.644,95 z" fill="#65A1CF"/>
    <path d="M379.644,45 L429.644,45 L429.644,95 L379.644,95 z" fill="#EBEDED"/>
    <path d="M429.644,45 L479.644,45 L479.644,95 L429.644,95 z" fill="#65A1CF"/>
    <path d="M79.644,45 L129.644,45 L129.644,95 L79.644,95 z" fill="#EBEDED"/>
    <path d="M80.144,40.5 L480.144,40.5 L480.144,440.5 L80.144,440.5 z" fill-opacity="0" stroke="#294270" stroke-width="8"/>
    <text transform="matrix(1, 0, 0, 1, 104.316, 468)">
      <tspan x="-10.742" y="10" font-family="Roboto-Bold" font-size="40" fill="#294270">a</tspan>
    </text>
    <text transform="matrix(1, 0, 0, 1, 154.316, 468)">
      <tspan x="-11.289" y="10" font-family="Roboto-Bold" font-size="40" fill="#294270">b</tspan>
    </text>
    <text transform="matrix(1, 0, 0, 1, 204.316, 468)">
      <tspan x="-10.352" y="10" font-family="Roboto-Bold" font-size="40" fill="#294270">c</tspan>
    </text>
    <text transform="matrix(1, 0, 0, 1, 254.316, 468)">
      <tspan x="-11.289" y="10" font-family="Roboto-Bold" font-size="40" fill="#294270">d</tspan>
    </text>
    <text transform="matrix(1, 0, 0, 1, 304.316, 468)">
      <tspan x="-10.586" y="10" font-family="Roboto-Bold" font-size="40" fill="#294270">e</tspan>
    </text>
    <text transform="matrix(1, 0, 0, 1, 407.027, 468)">
      <tspan x="-11.289" y="10" font-family="Roboto-Bold" font-size="40" fill="#294270">g</tspan>
    </text>
    <text transform="matrix(1, 0, 0, 1, 358.948, 468)">
      <tspan x="-7.148" y="10" font-family="Roboto-Bold" font-size="40" fill="#294270">f</tspan>
    </text>
    <text transform="matrix(1, 0, 0, 1, 454.316, 468)">
      <tspan x="-11.289" y="10" font-family="Roboto-Bold" font-size="40" fill="#294270">h</tspan>
    </text>
    <text transform="matrix(1, 0, 0, 1, 51.475, 418)">
      <tspan x="-11.475" y="15" font-family="Roboto-Bold" font-size="40" fill="#294270">1</tspan>
    </text>
    <text transform="matrix(1, 0, 0, 1, 51.475, 368)">
      <tspan x="-11.475" y="15" font-family="Roboto-Bold" font-size="40" fill="#294270">2</tspan>
    </text>
    <text transform="matrix(1, 0, 0, 1, 51.475, 318)">
      <tspan x="-11.475" y="15" font-family="Roboto-Bold" font-size="40" fill="#294270">3</tspan>
    </text>
    <text transform="matrix(1, 0, 0, 1, 51.475, 268)">
      <tspan x="-11.475" y="15" font-family="Roboto-Bold" font-size="40" fill="#294270">4</tspan>
    </text>
    <text transform="matrix(1, 0, 0, 1, 51.475, 218)">
      <tspan x="-11.475" y="15" font-family="Roboto-Bold" font-size="40" fill="#294270">5</tspan>
    </text>
    <text transform="matrix(1, 0, 0, 1, 51.475, 168)">
      <tspan x="-11.475" y="15" font-family="Roboto-Bold" font-size="40" fill="#294270">6</tspan>
    </text>
    <text transform="matrix(1, 0, 0, 1, 51.475, 118)">
      <tspan x="-11.475" y="15" font-family="Roboto-Bold" font-size="40" fill="#294270">7</tspan>
    </text>
    <path d="M255.144,324.5 L255.144,169.5" fill-opacity="0" stroke="#294270" stroke-width="4"/>
    <path d="M405.5,169.5 L155.144,169.5" fill-opacity="0" stroke="#294270" stroke-width="4"/>
    <path d="M155.144,169.5 L155.144,69.5" fill-opacity="0" stroke="#294270" stroke-width="4"/>
    <path d="M155.144,69.5 L205.144,69.5" fill-opacity="0" stroke="#294270" stroke-width="4"/>
    <text transform="matrix(1, 0, 0, 1, 51.475, 68)">
      <tspan x="-11.475" y="15" font-family="Roboto-Bold" font-size="40" fill="#294270">8</tspan>
    </text>
    <g>
      <text transform="matrix(1, 0, 0, 1, 254.316, 316.5)">
        <tspan x="-24" y="18.5" font-family="ArialUnicodeMS" font-size="48" fill="#8FC7ED">♜</tspan>
      </text>
      <path d="M270.722,340.414 L237.699,340.414 L237.699,334.367 L241.027,330.734 L241.027,328.367 L245.011,323.914 L245.011,313.344 L240.535,310.32 L240.535,301.109 L246.839,301.109 L246.839,305.375 L251.292,305.375 L251.292,301.109 L257.152,301.109 L257.152,305.375 L261.605,305.375 L261.605,301.109 L267.91,301.109 L267.91,310.32 L263.433,313.344 L263.433,323.914 L267.417,328.367 L267.417,330.734 L270.722,334.367 z M266.55,309.359 L266.55,306.734 L241.894,306.734 L241.894,309.359 z M265.542,328.273 L263.011,325.438 L245.433,325.438 L242.902,328.273 z M269.152,334.531 L266.081,331.203 L242.363,331.203 L239.292,334.531 z" fill="#8FC7ED"/>
      <path d="M270.722,340.414 L237.699,340.414 L237.699,334.367 L241.027,330.734 L241.027,328.367 L245.011,323.914 L245.011,313.344 L240.535,310.32 L240.535,301.109 L246.839,301.109 L246.839,305.375 L251.292,305.375 L251.292,301.109 L257.152,301.109 L257.152,305.375 L261.605,305.375 L261.605,301.109 L267.91,301.109 L267.91,310.32 L263.433,313.344 L263.433,323.914 L267.417,328.367 L267.417,330.734 L270.722,334.367 z M266.55,309.359 L266.55,306.734 L241.894,306.734 L241.894,309.359 z M265.542,328.273 L263.011,325.438 L245.433,325.438 L242.902,328.273 z M269.152,334.531 L266.081,331.203 L242.363,331.203 L239.292,334.531 z" fill-opacity="0" stroke="#294270" stroke-width="2"/>
    </g>
    <g>
      <text transform="matrix(1, 0, 0, 1, 254.316, 166.5)">
        <tspan x="-24" y="18.5" font-family="ArialUnicodeMS" font-size="48" fill="#F0801A">♜</tspan>
      </text>
      <path d="M270.722,190.414 L237.699,190.414 L237.699,184.367 L241.027,180.734 L241.027,178.367 L245.011,173.914 L245.011,163.344 L240.535,160.32 L240.535,151.109 L246.839,151.109 L246.839,155.375 L251.292,155.375 L251.292,151.109 L257.152,151.109 L257.152,155.375 L261.605,155.375 L261.605,151.109 L267.91,151.109 L267.91,160.32 L263.433,163.344 L263.433,173.914 L267.417,178.367 L267.417,180.734 L270.722,184.367 z M266.55,159.359 L266.55,156.734 L241.894,156.734 L241.894,159.359 z M265.542,178.273 L263.011,175.438 L245.433,175.438 L242.902,178.273 z M269.152,184.531 L266.081,181.203 L242.363,181.203 L239.292,184.531 z" fill="#F0801A"/>
      <path d="M270.722,190.414 L237.699,190.414 L237.699,184.367 L241.027,180.734 L241.027,178.367 L245.011,173.914 L245.011,163.344 L240.535,160.32 L240.535,151.109 L246.839,151.109 L246.839,155.375 L251.292,155.375 L251.292,151.109 L257.152,151.109 L257.152,155.375 L261.605,155.375 L261.605,151.109 L267.91,151.109 L267.91,160.32 L263.433,163.344 L263.433,173.914 L267.417,178.367 L267.417,180.734 L270.722,184.367 z M266.55,159.359 L266.55,156.734 L241.894,156.734 L241.894,159.359 z M265.542,178.273 L263.011,175.438 L245.433,175.438 L242.902,178.273 z M269.152,184.531 L266.081,181.203 L242.363,181.203 L239.292,184.531 z" fill-opacity="0" stroke="#294270" stroke-width="2"/>
    </g>
    <g>
      <text transform="matrix(1, 0, 0, 1, 404.644, 266.5)">
        <tspan x="-24" y="18.5" font-family="ArialUnicodeMS" font-size="48" fill="#F0801A">♜</tspan>
      </text>
      <path d="M421.05,290.414 L388.027,290.414 L388.027,284.367 L391.355,280.734 L391.355,278.367 L395.339,273.914 L395.339,263.344 L390.863,260.32 L390.863,251.109 L397.167,251.109 L397.167,255.375 L401.621,255.375 L401.621,251.109 L407.48,251.109 L407.48,255.375 L411.933,255.375 L411.933,251.109 L418.238,251.109 L418.238,260.32 L413.761,263.344 L413.761,273.914 L417.746,278.367 L417.746,280.734 L421.05,284.367 z M416.878,259.359 L416.878,256.734 L392.222,256.734 L392.222,259.359 z M415.871,278.273 L413.339,275.438 L395.761,275.438 L393.23,278.273 z M419.48,284.531 L416.41,281.203 L392.691,281.203 L389.621,284.531 z" fill="#F0801A"/>
      <path d="M421.05,290.414 L388.027,290.414 L388.027,284.367 L391.355,280.734 L391.355,278.367 L395.339,273.914 L395.339,263.344 L390.863,260.32 L390.863,251.109 L397.167,251.109 L397.167,255.375 L401.621,255.375 L401.621,251.109 L407.48,251.109 L407.48,255.375 L411.933,255.375 L411.933,251.109 L418.238,251.109 L418.238,260.32 L413.761,263.344 L413.761,273.914 L417.746,278.367 L417.746,280.734 L421.05,284.367 z M416.878,259.359 L416.878,256.734 L392.222,256.734 L392.222,259.359 z M415.871,278.273 L413.339,275.438 L395.761,275.438 L393.23,278.273 z M419.48,284.531 L416.41,281.203 L392.691,281.203 L389.621,284.531 z" fill-opacity="0" stroke="#294270" stroke-width="2"/>
    </g>
    <g>
      <text transform="matrix(1, 0, 0, 1, 404.644, 166.5)">
        <tspan x="-24" y="18.5" font-family="ArialUnicodeMS" font-size="48" fill="#F0801A">♜</tspan>
      </text>
      <path d="M421.05,190.414 L388.027,190.414 L388.027,184.367 L391.355,180.734 L391.355,178.367 L395.339,173.914 L395.339,163.344 L390.863,160.32 L390.863,151.109 L397.167,151.109 L397.167,155.375 L401.621,155.375 L401.621,151.109 L407.48,151.109 L407.48,155.375 L411.933,155.375 L411.933,151.109 L418.238,151.109 L418.238,160.32 L413.761,163.344 L413.761,173.914 L417.746,178.367 L417.746,180.734 L421.05,184.367 z M416.878,159.359 L416.878,156.734 L392.222,156.734 L392.222,159.359 z M415.871,178.273 L413.339,175.438 L395.761,175.438 L393.23,178.273 z M419.48,184.531 L416.41,181.203 L392.691,181.203 L389.621,184.531 z" fill="#F0801A"/>
      <path d="M421.05,190.414 L388.027,190.414 L388.027,184.367 L391.355,180.734 L391.355,178.367 L395.339,173.914 L395.339,163.344 L390.863,160.32 L390.863,151.109 L397.167,151.109 L397.167,155.375 L401.621,155.375 L401.621,151.109 L407.48,151.109 L407.48,155.375 L411.933,155.375 L411.933,151.109 L418.238,151.109 L418.238,160.32 L413.761,163.344 L413.761,173.914 L417.746,178.367 L417.746,180.734 L421.05,184.367 z M416.878,159.359 L416.878,156.734 L392.222,156.734 L392.222,159.359 z M415.871,178.273 L413.339,175.438 L395.761,175.438 L393.23,178.273 z M419.48,184.531 L416.41,181.203 L392.691,181.203 L389.621,184.531 z" fill-opacity="0" stroke="#294270" stroke-width="2"/>
    </g>
    <g>
      <text transform="matrix(1, 0, 0, 1, 204.644, 66.5)">
        <tspan x="-24" y="18.5" font-family="ArialUnicodeMS" font-size="48" fill="#F0801A">♜</tspan>
      </text>
      <path d="M221.05,90.414 L188.027,90.414 L188.027,84.367 L191.355,80.734 L191.355,78.367 L195.339,73.914 L195.339,63.344 L190.863,60.32 L190.863,51.109 L197.167,51.109 L197.167,55.375 L201.621,55.375 L201.621,51.109 L207.48,51.109 L207.48,55.375 L211.933,55.375 L211.933,51.109 L218.238,51.109 L218.238,60.32 L213.761,63.344 L213.761,73.914 L217.746,78.367 L217.746,80.734 L221.05,84.367 z M216.878,59.359 L216.878,56.734 L192.222,56.734 L192.222,59.359 z M215.871,78.273 L213.339,75.438 L195.761,75.438 L193.23,78.273 z M219.48,84.531 L216.41,81.203 L192.691,81.203 L189.621,84.531 z" fill="#F0801A"/>
      <path d="M221.05,90.414 L188.027,90.414 L188.027,84.367 L191.355,80.734 L191.355,78.367 L195.339,73.914 L195.339,63.344 L190.863,60.32 L190.863,51.109 L197.167,51.109 L197.167,55.375 L201.621,55.375 L201.621,51.109 L207.48,51.109 L207.48,55.375 L211.933,55.375 L211.933,51.109 L218.238,51.109 L218.238,60.32 L213.761,63.344 L213.761,73.914 L217.746,78.367 L217.746,80.734 L221.05,84.367 z M216.878,59.359 L216.878,56.734 L192.222,56.734 L192.222,59.359 z M215.871,78.273 L213.339,75.438 L195.761,75.438 L193.23,78.273 z M219.48,84.531 L216.41,81.203 L192.691,81.203 L189.621,84.531 z" fill-opacity="0" stroke="#294270" stroke-width="2"/>
    </g>
    <g>
      <text transform="matrix(1, 0, 0, 1, 154.316, 66.5)">
        <tspan x="-24" y="18.5" font-family="ArialUnicodeMS" font-size="48" fill="#F0801A">♜</tspan>
      </text>
      <path d="M170.722,90.414 L137.699,90.414 L137.699,84.367 L141.027,80.734 L141.027,78.367 L145.011,73.914 L145.011,63.344 L140.535,60.32 L140.535,51.109 L146.839,51.109 L146.839,55.375 L151.292,55.375 L151.292,51.109 L157.152,51.109 L157.152,55.375 L161.605,55.375 L161.605,51.109 L167.91,51.109 L167.91,60.32 L163.433,63.344 L163.433,73.914 L167.417,78.367 L167.417,80.734 L170.722,84.367 z M166.55,59.359 L166.55,56.734 L141.894,56.734 L141.894,59.359 z M165.542,78.273 L163.011,75.438 L145.433,75.438 L142.902,78.273 z M169.152,84.531 L166.081,81.203 L142.363,81.203 L139.292,84.531 z" fill="#F0801A"/>
      <path d="M170.722,90.414 L137.699,90.414 L137.699,84.367 L141.027,80.734 L141.027,78.367 L145.011,73.914 L145.011,63.344 L140.535,60.32 L140.535,51.109 L146.839,51.109 L146.839,55.375 L151.292,55.375 L151.292,51.109 L157.152,51.109 L157.152,55.375 L161.605,55.375 L161.605,51.109 L167.91,51.109 L167.91,60.32 L163.433,63.344 L163.433,73.914 L167.417,78.367 L167.417,80.734 L170.722,84.367 z M166.55,59.359 L166.55,56.734 L141.894,56.734 L141.894,59.359 z M165.542,78.273 L163.011,75.438 L145.433,75.438 L142.902,78.273 z M169.152,84.531 L166.081,81.203 L142.363,81.203 L139.292,84.531 z" fill-opacity="0" stroke="#294270" stroke-width="2"/>
    </g>
    <g>
      <text transform="matrix(1, 0, 0, 1, 154.644, 166.5)">
        <tspan x="-24" y="18.5" font-family="ArialUnicodeMS" font-size="48" fill="#F0801A">♜</tspan>
      </text>
      <path d="M171.05,190.414 L138.027,190.414 L138.027,184.367 L141.355,180.734 L141.355,178.367 L145.339,173.914 L145.339,163.344 L140.863,160.32 L140.863,151.109 L147.167,151.109 L147.167,155.375 L151.621,155.375 L151.621,151.109 L157.48,151.109 L157.48,155.375 L161.933,155.375 L161.933,151.109 L168.238,151.109 L168.238,160.32 L163.761,163.344 L163.761,173.914 L167.746,178.367 L167.746,180.734 L171.05,184.367 z M166.878,159.359 L166.878,156.734 L142.222,156.734 L142.222,159.359 z M165.871,178.273 L163.339,175.438 L145.761,175.438 L143.23,178.273 z M169.48,184.531 L166.41,181.203 L142.691,181.203 L139.621,184.531 z" fill="#F0801A"/>
      <path d="M171.05,190.414 L138.027,190.414 L138.027,184.367 L141.355,180.734 L141.355,178.367 L145.339,173.914 L145.339,163.344 L140.863,160.32 L140.863,151.109 L147.167,151.109 L147.167,155.375 L151.621,155.375 L151.621,151.109 L157.48,151.109 L157.48,155.375 L161.933,155.375 L161.933,151.109 L168.238,151.109 L168.238,160.32 L163.761,163.344 L163.761,173.914 L167.746,178.367 L167.746,180.734 L171.05,184.367 z M166.878,159.359 L166.878,156.734 L142.222,156.734 L142.222,159.359 z M165.871,178.273 L163.339,175.438 L145.761,175.438 L143.23,178.273 z M169.48,184.531 L166.41,181.203 L142.691,181.203 L139.621,184.531 z" fill-opacity="0" stroke="#294270" stroke-width="2"/>
    </g>
    <path d="M759.644,395 L809.644,395 L809.644,445 L759.644,445 z" fill="#65A1CF"/>
    <path d="M809.644,395 L859.644,395 L859.644,445 L809.644,445 z" fill="#EBEDED"/>
    <path d="M859.644,395 L909.644,395 L909.644,445 L859.644,445 z" fill="#65A1CF"/>
    <path d="M909.644,395 L959.644,395 L959.644,445 L909.644,445 z" fill="#EBEDED"/>
    <path d="M959.644,395 L1009.644,395 L1009.644,445 L959.644,445 z" fill="#65A1CF"/>
    <path d="M1009.644,395 L1059.644,395 L1059.644,445 L1009.644,445 z" fill="#EBEDED"/>
    <path d="M1059.644,395 L1109.644,395 L1109.644,445 L1059.644,445 z" fill="#65A1CF"/>
    <path d="M1109.644,395 L1159.644,395 L1159.644,445 L1109.644,445 z" fill="#EBEDED"/>
    <path d="M759.644,295 L809.644,295 L809.644,345 L759.644,345 z" fill="#65A1CF"/>
    <path d="M809.644,295 L859.644,295 L859.644,345 L809.644,345 z" fill="#EBEDED"/>
    <path d="M859.644,295 L909.644,295 L909.644,345 L859.644,345 z" fill="#65A1CF"/>
    <path d="M909.644,295 L959.644,295 L959.644,345 L909.644,345 z" fill="#EBEDED"/>
    <path d="M959.644,295 L1009.644,295 L1009.644,345 L959.644,345 z" fill="#65A1CF"/>
    <path d="M1009.644,295 L1059.644,295 L1059.644,345 L1009.644,345 z" fill="#EBEDED"/>
    <path d="M1059.644,295 L1109.644,295 L1109.644,345 L1059.644,345 z" fill="#65A1CF"/>
    <path d="M1109.644,295 L1159.644,295 L1159.644,345 L1109.644,345 z" fill="#EBEDED"/>
    <path d="M809.644,345 L859.644,345 L859.644,395 L809.644,395 z" fill="#65A1CF"/>
    <path d="M859.644,345 L909.644,345 L909.644,395 L859.644,395 z" fill="#EBEDED"/>
    <path d="M909.644,345 L959.644,345 L959.644,395 L909.644,395 z" fill="#65A1CF"/>
    <path d="M959.644,345 L1009.644,345 L1009.644,395 L959.644,395 z" fill="#EBEDED"/>
    <path d="M1009.644,345 L1059.644,345 L1059.644,395 L1009.644,395 z" fill="#65A1CF"/>
    <path d="M1059.644,345 L1109.644,345 L1109.644,395 L1059.644,395 z" fill="#EBEDED"/>
    <path d="M1109.644,345 L1159.644,345 L1159.644,395 L1109.644,395 z" fill="#65A1CF"/>
    <path d="M759.644,345 L809.644,345 L809.644,395 L759.644,395 z" fill="#EBEDED"/>
    <path d="M809.644,245 L859.644,245 L859.644,295 L809.644,295 z" fill="#65A1CF"/>
    <path d="M859.644,245 L909.644,245 L909.644,295 L859.644,295 z" fill="#EBEDED"/>
    <path d="M909.644,245 L959.644,245 L959.644,295 L909.644,295 z" fill="#65A1CF"/>
    <path d="M959.644,245 L1009.644,245 L1009.644,295 L959.644,295 z" fill="#EBEDED"/>
    <path d="M1009.644,245 L1059.644,245 L1059.644,295 L1009.644,295 z" fill="#65A1CF"/>
    <path d="M1059.644,245 L1109.644,245 L1109.644,295 L1059.644,295 z" fill="#EBEDED"/>
    <path d="M1109.644,245 L1159.644,245 L1159.644,295 L1109.644,295 z" fill="#65A1CF"/>
    <path d="M759.644,245 L809.644,245 L809.644,295 L759.644,295 z" fill="#EBEDED"/>
    <path d="M759.644,195 L809.644,195 L809.644,245 L759.644,245 z" fill="#65A1CF"/>
    <path d="M809.644,195 L859.644,195 L859.644,245 L809.644,245 z" fill="#EBEDED"/>
    <path d="M859.644,195 L909.644,195 L909.644,245 L859.644,245 z" fill="#65A1CF"/>
    <path d="M909.644,195 L959.644,195 L959.644,245 L909.644,245 z" fill="#EBEDED"/>
    <path d="M959.644,195 L1009.644,195 L1009.644,245 L959.644,245 z" fill="#65A1CF"/>
    <path d="M1009.644,195 L1059.644,195 L1059.644,245 L1009.644,245 z" fill="#EBEDED"/>
    <path d="M1059.644,195 L1109.644,195 L1109.644,245 L1059.644,245 z" fill="#65A1CF"/>
    <path d="M1109.644,195 L1159.644,195 L1159.644,245 L1109.644,245 z" fill="#EBEDED"/>
    <path d="M759.644,95 L809.644,95 L809.644,145 L759.644,145 z" fill="#65A1CF"/>
    <path d="M809.644,95 L859.644,95 L859.644,145 L809.644,145 z" fill="#EBEDED"/>
    <path d="M859.644,95 L909.644,95 L909.644,145 L859.644,145 z" fill="#65A1CF"/>
    <path d="M909.644,95 L959.644,95 L959.644,145 L909.644,145 z" fill="#EBEDED"/>
    <path d="M959.644,95 L1009.644,95 L1009.644,145 L959.644,145 z" fill="#65A1CF"/>
    <path d="M1009.644,95 L1059.644,95 L1059.644,145 L1009.644,145 z" fill="#EBEDED"/>
    <path d="M1059.644,95 L1109.644,95 L1109.644,145 L1059.644,145 z" fill="#65A1CF"/>
    <path d="M1109.644,95 L1159.644,95 L1159.644,145 L1109.644,145 z" fill="#EBEDED"/>
    <path d="M809.644,145 L859.644,145 L859.644,195 L809.644,195 z" fill="#65A1CF"/>
    <path d="M859.644,145 L909.644,145 L909.644,195 L859.644,195 z" fill="#EBEDED"/>
    <path d="M909.644,145 L959.644,145 L959.644,195 L909.644,195 z" fill="#65A1CF"/>
    <path d="M959.644,145 L1009.644,145 L1009.644,195 L959.644,195 z" fill="#EBEDED"/>
    <path d="M1009.644,145 L1059.644,145 L1059.644,195 L1009.644,195 z" fill="#65A1CF"/>
    <path d="M1059.644,145 L1109.644,145 L1109.644,195 L1059.644,195 z" fill="#EBEDED"/>
    <path d="M1109.644,145 L1159.644,145 L1159.644,195 L1109.644,195 z" fill="#65A1CF"/>
    <path d="M759.644,145 L809.644,145 L809.644,195 L759.644,195 z" fill="#EBEDED"/>
    <path d="M809.644,45 L859.644,45 L859.644,95 L809.644,95 z" fill="#65A1CF"/>
    <path d="M859.644,45 L909.644,45 L909.644,95 L859.644,95 z" fill="#EBEDED"/>
    <path d="M909.644,45 L959.644,45 L959.644,95 L909.644,95 z" fill="#65A1CF"/>
    <path d="M959.644,45 L1009.644,45 L1009.644,95 L959.644,95 z" fill="#EBEDED"/>
    <path d="M1009.644,45 L1059.644,45 L1059.644,95 L1009.644,95 z" fill="#65A1CF"/>
    <path d="M1059.644,45 L1109.644,45 L1109.644,95 L1059.644,95 z" fill="#EBEDED"/>
    <path d="M1109.644,45 L1159.644,45 L1159.644,95 L1109.644,95 z" fill="#65A1CF"/>
    <path d="M759.644,45 L809.644,45 L809.644,95 L759.644,95 z" fill="#EBEDED"/>
    <path d="M760.144,40.5 L1160.144,40.5 L1160.144,440.5 L760.144,440.5 z" fill-opacity="0" stroke="#294270" stroke-width="8"/>
    <text transform="matrix(1, 0, 0, 1, 784.316, 468)">
      <tspan x="-10.742" y="10" font-family="Roboto-Bold" font-size="40" fill="#294270">a</tspan>
    </text>
    <text transform="matrix(1, 0, 0, 1, 834.316, 468)">
      <tspan x="-11.289" y="10" font-family="Roboto-Bold" font-size="40" fill="#294270">b</tspan>
    </text>
    <text transform="matrix(1, 0, 0, 1, 884.316, 468)">
      <tspan x="-10.352" y="10" font-family="Roboto-Bold" font-size="40" fill="#294270">c</tspan>
    </text>
    <text transform="matrix(1, 0, 0, 1, 934.316, 468)">
      <tspan x="-11.289" y="10" font-family="Roboto-Bold" font-size="40" fill="#294270">d</tspan>
    </text>
    <text transform="matrix(1, 0, 0, 1, 984.316, 468)">
      <tspan x="-10.586" y="10" font-family="Roboto-Bold" font-size="40" fill="#294270">e</tspan>
    </text>
    <text transform="matrix(1, 0, 0, 1, 1087.027, 468)">
      <tspan x="-11.289" y="10" font-family="Roboto-Bold" font-size="40" fill="#294270">g</tspan>
    </text>
    <text transform="matrix(1, 0, 0, 1, 1038.948, 468)">
      <tspan x="-7.148" y="10" font-family="Roboto-Bold" font-size="40" fill="#294270">f</tspan>
    </text>
    <text transform="matrix(1, 0, 0, 1, 1134.316, 468)">
      <tspan x="-11.289" y="10" font-family="Roboto-Bold" font-size="40" fill="#294270">h</tspan>
    </text>
    <text transform="matrix(1, 0, 0, 1, 731.475, 418)">
      <tspan x="-11.475" y="15" font-family="Roboto-Bold" font-size="40" fill="#294270">1</tspan>
    </text>
    <text transform="matrix(1, 0, 0, 1, 731.475, 368)">
      <tspan x="-11.475" y="15" font-family="Roboto-Bold" font-size="40" fill="#294270">2</tspan>
    </text>
    <text transform="matrix(1, 0, 0, 1, 731.475, 318)">
      <tspan x="-11.475" y="15" font-family="Roboto-Bold" font-size="40" fill="#294270">3</tspan>
    </text>
    <text transform="matrix(1, 0, 0, 1, 731.475, 268)">
      <tspan x="-11.475" y="15" font-family="Roboto-Bold" font-size="40" fill="#294270">4</tspan>
    </text>
    <text transform="matrix(1, 0, 0, 1, 731.475, 218)">
      <tspan x="-11.475" y="15" font-family="Roboto-Bold" font-size="40" fill="#294270">5</tspan>
    </text>
    <text transform="matrix(1, 0, 0, 1, 731.475, 168)">
      <tspan x="-11.475" y="15" font-family="Roboto-Bold" font-size="40" fill="#294270">6</tspan>
    </text>
    <text transform="matrix(1, 0, 0, 1, 731.475, 118)">
      <tspan x="-11.475" y="15" font-family="Roboto-Bold" font-size="40" fill="#294270">7</tspan>
    </text>
    <text transform="matrix(1, 0, 0, 1, 731.475, 68)">
      <tspan x="-11.475" y="15" font-family="Roboto-Bold" font-size="40" fill="#294270">8</tspan>
    </text>
    <path d="M1135.5,69.5 L1135.5,169.5" fill-opacity="0" stroke="#294270" stroke-width="4"/>
    <path d="M1035.5,69.5 L1135.5,69.5" fill-opacity="0" stroke="#294270" stroke-width="4"/>
    <path d="M1035.5,169.5 L1035.5,69.5" fill-opacity="0" stroke="#294270" stroke-width="4"/>
    <path d="M785.5,169.5 L1035.5,169.5" fill-opacity="0" stroke="#294270" stroke-width="4"/>
    <path d="M785.5,370.5 L1035.5,370.5" fill-opacity="0" stroke="#294270" stroke-width="4" stroke-dasharray="12,8"/>
    <path d="M1035.5,370.5 L1035.5,169.5" fill-opacity="0" stroke="#294270" stroke-width="4"/>
    <path d="M1035.5,169.5 L1135.5,169.5" fill-opacity="0" stroke="#294270" stroke-width="4"/>
    <path d="M785.5,370.5 L785.5,169.5" fill-opacity="0" stroke="#294270" stroke-width="4"/>
    <g>
      <text transform="matrix(1, 0, 0, 1, 784.644, 366.5)">
        <tspan x="-24" y="18.5" font-family="ArialUnicodeMS" font-size="48" fill="#8FC7ED">♜</tspan>
      </text>
      <path d="M801.05,390.414 L768.027,390.414 L768.027,384.367 L771.355,380.734 L771.355,378.367 L775.339,373.914 L775.339,363.344 L770.863,360.32 L770.863,351.109 L777.167,351.109 L777.167,355.375 L781.62,355.375 L781.62,351.109 L787.48,351.109 L787.48,355.375 L791.933,355.375 L791.933,351.109 L798.238,351.109 L798.238,360.32 L793.761,363.344 L793.761,373.914 L797.745,378.367 L797.745,380.734 L801.05,384.367 z M796.878,359.359 L796.878,356.734 L772.222,356.734 L772.222,359.359 z M795.87,378.273 L793.339,375.438 L775.761,375.438 L773.23,378.273 z M799.48,384.531 L796.41,381.203 L772.691,381.203 L769.62,384.531 z" fill="#8FC7ED"/>
      <path d="M801.05,390.414 L768.027,390.414 L768.027,384.367 L771.355,380.734 L771.355,378.367 L775.339,373.914 L775.339,363.344 L770.863,360.32 L770.863,351.109 L777.167,351.109 L777.167,355.375 L781.62,355.375 L781.62,351.109 L787.48,351.109 L787.48,355.375 L791.933,355.375 L791.933,351.109 L798.238,351.109 L798.238,360.32 L793.761,363.344 L793.761,373.914 L797.745,378.367 L797.745,380.734 L801.05,384.367 z M796.878,359.359 L796.878,356.734 L772.222,356.734 L772.222,359.359 z M795.87,378.273 L793.339,375.438 L775.761,375.438 L773.23,378.273 z M799.48,384.531 L796.41,381.203 L772.691,381.203 L769.62,384.531 z" fill-opacity="0" stroke="#294270" stroke-width="2"/>
    </g>
    <g>
      <text transform="matrix(1, 0, 0, 1, 1134.644, 166.5)">
        <tspan x="-24" y="18.5" font-family="ArialUnicodeMS" font-size="48" fill="#F0801A">♜</tspan>
      </text>
      <path d="M1151.05,190.414 L1118.027,190.414 L1118.027,184.367 L1121.355,180.734 L1121.355,178.367 L1125.339,173.914 L1125.339,163.344 L1120.863,160.32 L1120.863,151.109 L1127.167,151.109 L1127.167,155.375 L1131.62,155.375 L1131.62,151.109 L1137.48,151.109 L1137.48,155.375 L1141.933,155.375 L1141.933,151.109 L1148.238,151.109 L1148.238,160.32 L1143.761,163.344 L1143.761,173.914 L1147.745,178.367 L1147.745,180.734 L1151.05,184.367 z M1146.878,159.359 L1146.878,156.734 L1122.222,156.734 L1122.222,159.359 z M1145.87,178.273 L1143.339,175.438 L1125.761,175.438 L1123.23,178.273 z M1149.48,184.531 L1146.41,181.203 L1122.691,181.203 L1119.62,184.531 z" fill="#F0801A"/>
      <path d="M1151.05,190.414 L1118.027,190.414 L1118.027,184.367 L1121.355,180.734 L1121.355,178.367 L1125.339,173.914 L1125.339,163.344 L1120.863,160.32 L1120.863,151.109 L1127.167,151.109 L1127.167,155.375 L1131.62,155.375 L1131.62,151.109 L1137.48,151.109 L1137.48,155.375 L1141.933,155.375 L1141.933,151.109 L1148.238,151.109 L1148.238,160.32 L1143.761,163.344 L1143.761,173.914 L1147.745,178.367 L1147.745,180.734 L1151.05,184.367 z M1146.878,159.359 L1146.878,156.734 L1122.222,156.734 L1122.222,159.359 z M1145.87,178.273 L1143.339,175.438 L1125.761,175.438 L1123.23,178.273 z M1149.48,184.531 L1146.41,181.203 L1122.691,181.203 L1119.62,184.531 z" fill-opacity="0" stroke="#294270" stroke-width="2"/>
    </g>
    <g>
      <text transform="matrix(1, 0, 0, 1, 1034.644, 166.5)">
        <tspan x="-24" y="18.5" font-family="ArialUnicodeMS" font-size="48" fill="#F0801A">♜</tspan>
      </text>
      <path d="M1051.05,190.414 L1018.027,190.414 L1018.027,184.367 L1021.355,180.734 L1021.355,178.367 L1025.339,173.914 L1025.339,163.344 L1020.863,160.32 L1020.863,151.109 L1027.167,151.109 L1027.167,155.375 L1031.62,155.375 L1031.62,151.109 L1037.48,151.109 L1037.48,155.375 L1041.933,155.375 L1041.933,151.109 L1048.238,151.109 L1048.238,160.32 L1043.761,163.344 L1043.761,173.914 L1047.745,178.367 L1047.745,180.734 L1051.05,184.367 z M1046.878,159.359 L1046.878,156.734 L1022.222,156.734 L1022.222,159.359 z M1045.87,178.273 L1043.339,175.438 L1025.761,175.438 L1023.23,178.273 z M1049.48,184.531 L1046.41,181.203 L1022.691,181.203 L1019.62,184.531 z" fill="#F0801A"/>
      <path d="M1051.05,190.414 L1018.027,190.414 L1018.027,184.367 L1021.355,180.734 L1021.355,178.367 L1025.339,173.914 L1025.339,163.344 L1020.863,160.32 L1020.863,151.109 L1027.167,151.109 L1027.167,155.375 L1031.62,155.375 L1031.62,151.109 L1037.48,151.109 L1037.48,155.375 L1041.933,155.375 L1041.933,151.109 L1048.238,151.109 L1048.238,160.32 L1043.761,163.344 L1043.761,173.914 L1047.745,178.367 L1047.745,180.734 L1051.05,184.367 z M1046.878,159.359 L1046.878,156.734 L1022.222,156.734 L1022.222,159.359 z M1045.87,178.273 L1043.339,175.438 L1025.761,175.438 L1023.23,178.273 z M1049.48,184.531 L1046.41,181.203 L1022.691,181.203 L1019.62,184.531 z" fill-opacity="0" stroke="#294270" stroke-width="2"/>
    </g>
    <g>
      <text transform="matrix(1, 0, 0, 1, 1034.644, 66.5)">
        <tspan x="-24" y="18.5" font-family="ArialUnicodeMS" font-size="48" fill="#F0801A">♜</tspan>
      </text>
      <path d="M1051.05,90.414 L1018.027,90.414 L1018.027,84.367 L1021.355,80.734 L1021.355,78.367 L1025.339,73.914 L1025.339,63.344 L1020.863,60.32 L1020.863,51.109 L1027.167,51.109 L1027.167,55.375 L1031.62,55.375 L1031.62,51.109 L1037.48,51.109 L1037.48,55.375 L1041.933,55.375 L1041.933,51.109 L1048.238,51.109 L1048.238,60.32 L1043.761,63.344 L1043.761,73.914 L1047.745,78.367 L1047.745,80.734 L1051.05,84.367 z M1046.878,59.359 L1046.878,56.734 L1022.222,56.734 L1022.222,59.359 z M1045.87,78.273 L1043.339,75.438 L1025.761,75.438 L1023.23,78.273 z M1049.48,84.531 L1046.41,81.203 L1022.691,81.203 L1019.62,84.531 z" fill="#F0801A"/>
      <path d="M1051.05,90.414 L1018.027,90.414 L1018.027,84.367 L1021.355,80.734 L1021.355,78.367 L1025.339,73.914 L1025.339,63.344 L1020.863,60.32 L1020.863,51.109 L1027.167,51.109 L1027.167,55.375 L1031.62,55.375 L1031.62,51.109 L1037.48,51.109 L1037.48,55.375 L1041.933,55.375 L1041.933,51.109 L1048.238,51.109 L1048.238,60.32 L1043.761,63.344 L1043.761,73.914 L1047.745,78.367 L1047.745,80.734 L1051.05,84.367 z M1046.878,59.359 L1046.878,56.734 L1022.222,56.734 L1022.222,59.359 z M1045.87,78.273 L1043.339,75.438 L1025.761,75.438 L1023.23,78.273 z M1049.48,84.531 L1046.41,81.203 L1022.691,81.203 L1019.62,84.531 z" fill-opacity="0" stroke="#294270" stroke-width="2"/>
    </g>
    <g>
      <text transform="matrix(1, 0, 0, 1, 1134.644, 66.5)">
        <tspan x="-24" y="18.5" font-family="ArialUnicodeMS" font-size="48" fill="#F0801A">♜</tspan>
      </text>
      <path d="M1151.05,90.414 L1118.027,90.414 L1118.027,84.367 L1121.355,80.734 L1121.355,78.367 L1125.339,73.914 L1125.339,63.344 L1120.863,60.32 L1120.863,51.109 L1127.167,51.109 L1127.167,55.375 L1131.62,55.375 L1131.62,51.109 L1137.48,51.109 L1137.48,55.375 L1141.933,55.375 L1141.933,51.109 L1148.238,51.109 L1148.238,60.32 L1143.761,63.344 L1143.761,73.914 L1147.745,78.367 L1147.745,80.734 L1151.05,84.367 z M1146.878,59.359 L1146.878,56.734 L1122.222,56.734 L1122.222,59.359 z M1145.87,78.273 L1143.339,75.438 L1125.761,75.438 L1123.23,78.273 z M1149.48,84.531 L1146.41,81.203 L1122.691,81.203 L1119.62,84.531 z" fill="#F0801A"/>
      <path d="M1151.05,90.414 L1118.027,90.414 L1118.027,84.367 L1121.355,80.734 L1121.355,78.367 L1125.339,73.914 L1125.339,63.344 L1120.863,60.32 L1120.863,51.109 L1127.167,51.109 L1127.167,55.375 L1131.62,55.375 L1131.62,51.109 L1137.48,51.109 L1137.48,55.375 L1141.933,55.375 L1141.933,51.109 L1148.238,51.109 L1148.238,60.32 L1143.761,63.344 L1143.761,73.914 L1147.745,78.367 L1147.745,80.734 L1151.05,84.367 z M1146.878,59.359 L1146.878,56.734 L1122.222,56.734 L1122.222,59.359 z M1145.87,78.273 L1143.339,75.438 L1125.761,75.438 L1123.23,78.273 z M1149.48,84.531 L1146.41,81.203 L1122.691,81.203 L1119.62,84.531 z" fill-opacity="0" stroke="#294270" stroke-width="2"/>
    </g>
    <g>
      <text transform="matrix(1, 0, 0, 1, 1034.644, 366.5)">
        <tspan x="-24" y="18.5" font-family="ArialUnicodeMS" font-size="48" fill="#F0801A">♜</tspan>
      </text>
      <path d="M1051.05,390.414 L1018.027,390.414 L1018.027,384.367 L1021.355,380.734 L1021.355,378.367 L1025.339,373.914 L1025.339,363.344 L1020.863,360.32 L1020.863,351.109 L1027.167,351.109 L1027.167,355.375 L1031.62,355.375 L1031.62,351.109 L1037.48,351.109 L1037.48,355.375 L1041.933,355.375 L1041.933,351.109 L1048.238,351.109 L1048.238,360.32 L1043.761,363.344 L1043.761,373.914 L1047.745,378.367 L1047.745,380.734 L1051.05,384.367 z M1046.878,359.359 L1046.878,356.734 L1022.222,356.734 L1022.222,359.359 z M1045.87,378.273 L1043.339,375.438 L1025.761,375.438 L1023.23,378.273 z M1049.48,384.531 L1046.41,381.203 L1022.691,381.203 L1019.62,384.531 z" fill="#F0801A"/>
      <path d="M1051.05,390.414 L1018.027,390.414 L1018.027,384.367 L1021.355,380.734 L1021.355,378.367 L1025.339,373.914 L1025.339,363.344 L1020.863,360.32 L1020.863,351.109 L1027.167,351.109 L1027.167,355.375 L1031.62,355.375 L1031.62,351.109 L1037.48,351.109 L1037.48,355.375 L1041.933,355.375 L1041.933,351.109 L1048.238,351.109 L1048.238,360.32 L1043.761,363.344 L1043.761,373.914 L1047.745,378.367 L1047.745,380.734 L1051.05,384.367 z M1046.878,359.359 L1046.878,356.734 L1022.222,356.734 L1022.222,359.359 z M1045.87,378.273 L1043.339,375.438 L1025.761,375.438 L1023.23,378.273 z M1049.48,384.531 L1046.41,381.203 L1022.691,381.203 L1019.62,384.531 z" fill-opacity="0" stroke="#294270" stroke-width="2"/>
    </g>
    <g>
      <text transform="matrix(1, 0, 0, 1, 784.644, 166.5)">
        <tspan x="-24" y="18.5" font-family="ArialUnicodeMS" font-size="48" fill="#F0801A">♜</tspan>
      </text>
      <path d="M801.05,190.414 L768.027,190.414 L768.027,184.367 L771.355,180.734 L771.355,178.367 L775.339,173.914 L775.339,163.344 L770.863,160.32 L770.863,151.109 L777.167,151.109 L777.167,155.375 L781.62,155.375 L781.62,151.109 L787.48,151.109 L787.48,155.375 L791.933,155.375 L791.933,151.109 L798.238,151.109 L798.238,160.32 L793.761,163.344 L793.761,173.914 L797.745,178.367 L797.745,180.734 L801.05,184.367 z M796.878,159.359 L796.878,156.734 L772.222,156.734 L772.222,159.359 z M795.87,178.273 L793.339,175.438 L775.761,175.438 L773.23,178.273 z M799.48,184.531 L796.41,181.203 L772.691,181.203 L769.62,184.531 z" fill="#F0801A"/>
      <path d="M801.05,190.414 L768.027,190.414 L768.027,184.367 L771.355,180.734 L771.355,178.367 L775.339,173.914 L775.339,163.344 L770.863,160.32 L770.863,151.109 L777.167,151.109 L777.167,155.375 L781.62,155.375 L781.62,151.109 L787.48,151.109 L787.48,155.375 L791.933,155.375 L791.933,151.109 L798.238,151.109 L798.238,160.32 L793.761,163.344 L793.761,173.914 L797.745,178.367 L797.745,180.734 L801.05,184.367 z M796.878,159.359 L796.878,156.734 L772.222,156.734 L772.222,159.359 z M795.87,178.273 L793.339,175.438 L775.761,175.438 L773.23,178.273 z M799.48,184.531 L796.41,181.203 L772.691,181.203 L769.62,184.531 z" fill-opacity="0" stroke="#294270" stroke-width="2"/>
    </g>
    <g>
      <text transform="matrix(1, 0, 0, 1, 600, 62.5)">
        <tspan x="-24" y="18.5" font-family="ArialUnicodeMS" font-size="48" fill="#8FC7ED">♜</tspan>
      </text>
      <path d="M616.406,86.414 L583.383,86.414 L583.383,80.367 L586.711,76.734 L586.711,74.367 L590.695,69.914 L590.695,59.344 L586.219,56.32 L586.219,47.109 L592.523,47.109 L592.523,51.375 L596.977,51.375 L596.977,47.109 L602.836,47.109 L602.836,51.375 L607.289,51.375 L607.289,47.109 L613.594,47.109 L613.594,56.32 L609.117,59.344 L609.117,69.914 L613.102,74.367 L613.102,76.734 L616.406,80.367 z M612.234,55.359 L612.234,52.734 L587.578,52.734 L587.578,55.359 z M611.227,74.273 L608.695,71.437 L591.117,71.437 L588.586,74.273 z M614.836,80.531 L611.766,77.203 L588.047,77.203 L584.977,80.531 z" fill="#8FC7ED"/>
      <path d="M616.406,86.414 L583.383,86.414 L583.383,80.367 L586.711,76.734 L586.711,74.367 L590.695,69.914 L590.695,59.344 L586.219,56.32 L586.219,47.109 L592.523,47.109 L592.523,51.375 L596.977,51.375 L596.977,47.109 L602.836,47.109 L602.836,51.375 L607.289,51.375 L607.289,47.109 L613.594,47.109 L613.594,56.32 L609.117,59.344 L609.117,69.914 L613.102,74.367 L613.102,76.734 L616.406,80.367 z M612.234,55.359 L612.234,52.734 L587.578,52.734 L587.578,55.359 z M611.227,74.273 L608.695,71.437 L591.117,71.437 L588.586,74.273 z M614.836,80.531 L611.766,77.203 L588.047,77.203 L584.977,80.531 z" fill-opacity="0" stroke="#294270" stroke-width="2"/>
    </g>
    <g>
      <text transform="matrix(1, 0, 0, 1, 600, 337.5)">
        <tspan x="-24" y="18.5" font-family="ArialUnicodeMS" font-size="48" fill="#F0801A">♜</tspan>
      </text>
      <path d="M616.406,361.414 L583.383,361.414 L583.383,355.367 L586.711,351.734 L586.711,349.367 L590.695,344.914 L590.695,334.344 L586.219,331.32 L586.219,322.109 L592.523,322.109 L592.523,326.375 L596.977,326.375 L596.977,322.109 L602.836,322.109 L602.836,326.375 L607.289,326.375 L607.289,322.109 L613.594,322.109 L613.594,331.32 L609.117,334.344 L609.117,344.914 L613.102,349.367 L613.102,351.734 L616.406,355.367 z M612.234,330.359 L612.234,327.734 L587.578,327.734 L587.578,330.359 z M611.227,349.273 L608.695,346.438 L591.117,346.438 L588.586,349.273 z M614.836,355.531 L611.766,352.203 L588.047,352.203 L584.977,355.531 z" fill="#F0801A"/>
      <path d="M616.406,361.414 L583.383,361.414 L583.383,355.367 L586.711,351.734 L586.711,349.367 L590.695,344.914 L590.695,334.344 L586.219,331.32 L586.219,322.109 L592.523,322.109 L592.523,326.375 L596.977,326.375 L596.977,322.109 L602.836,322.109 L602.836,326.375 L607.289,326.375 L607.289,322.109 L613.594,322.109 L613.594,331.32 L609.117,334.344 L609.117,344.914 L613.102,349.367 L613.102,351.734 L616.406,355.367 z M612.234,330.359 L612.234,327.734 L587.578,327.734 L587.578,330.359 z M611.227,349.273 L608.695,346.438 L591.117,346.438 L588.586,349.273 z M614.836,355.531 L611.766,352.203 L588.047,352.203 L584.977,355.531 z" fill-opacity="0" stroke="#294270" stroke-width="2"/>
    </g>
    <text transform="matrix(1, 0, 0, 1, 600, 115)">
      <tspan x="-60.249" y="13.5" font-family="Roboto-Regular" font-size="36" fill="#294270">berserk</tspan>
    </text>
    <text transform="matrix(1, 0, 0, 1, 600, 394.5)">
      <tspan x="-54.053" y="13.5" font-family="Roboto-Regular" font-size="36" fill="#294270">enemy</tspan>
    </text>
    <text transform="matrix(1, 0, 0, 1, 279.644, 533.5)">
      <tspan x="-71.033" y="-10.5" font-family="Roboto-Regular" font-size="36" fill="#294270">one path</tspan>
      <tspan x="-65.074" y="37.5" font-family="Roboto-Regular" font-size="36" fill="#294270">result: 4</tspan>
    </text>
    <text transform="matrix(1, 0, 0, 1, 959.644, 533.5)">
      <tspan x="-108.343" y="-10.5" font-family="Roboto-Regular" font-size="36" fill="#294270">several paths</tspan>
      <tspan x="-65.074" y="37.5" font-family="Roboto-Regular" font-size="36" fill="#294270">result: 6</tspan>
    </text>
  </g>
</svg>
